{"title":"Asian Mature And Teen Get Abused By Strangers On The Bus","uid":10792299,"size":175420640,"categoryP":"porn","categoryS":"movie_clips","magnet":"?xt=urn:btih:d3d5d33ebd71574b30d4f992178985b9b22be54f&amp;dn=Asian+Mature+And+Teen+Get+Abused+By+Strangers+On+The+Bus&amp;tr=udp%3A%2F%2Ftracker.openbittorrent.com%3A80&amp;tr=udp%3A%2F%2Fopen.demonii.com%3A1337&amp;tr=udp%3A%2F%2Ftracker.coppersurfer.tk%3A6969&amp;tr=udp%3A%2F%2Fexodus.desync.com%3A6969","seeders":2,"leechers":0,"uploader":"ThousandPeers","files":10,"time":1408262374,"description":"Format                                   : AVI\nFormat/Info                              : Audio Video Interleave\nFile size                                : 167 MiB\nDuration                                 : 1h 7mn\nOverall bit rate                         : 347 Kbps\nWriting library                          : VirtualDub build 30009/release\n\nVideo\nID                                       : 0\nFormat                                   : AVC\nFormat/Info                              : Advanced Video Codec\nFormat profile                           : &lt;a class=&quot;__cf_email__&quot; href=&quot;/cdn-cgi/l/email-protection&quot; data-cfemail=&quot;6c24050b042c205d425f&quot;&gt;[email&amp;#160;protected]&lt;/a&gt;&lt;script cf-hash='f9e31' type=&quot;text/javascript&quot;&gt;\n/* &lt;![CDATA[ */!function(){try{var t=&quot;currentScript&quot;in document?document.currentScript:function(){for(var t=document.getElementsByTagName(&quot;script&quot;),e=t.length;e--;)if(t[e].getAttribute(&quot;cf-hash&quot;))return t[e]}();if(t&amp;&amp;t.previousSibling){var e,r,n,i,c=t.previousSibling,a=c.getAttribute(&quot;data-cfemail&quot;);if(a){for(e=&quot;&quot;,r=parseInt(a.substr(0,2),16),n=2;a.length-n;n+=2)i=parseInt(a.substr(n,2),16)^r,e+=String.fromCharCode(i);e=document.createTextNode(e),c.parentNode.replaceChild(e,c)}}}catch(u){}}();/* ]]&gt; */&lt;/script&gt;\nFormat settings, CABAC                   : Yes\nFormat settings, ReFrames                : 1 frame\nCodec ID                                 : H264\nDuration                                 : 1h 7mn\nBit rate                                 : 281 Kbps\nWidth                                    : 320 pixels\nHeight                                   : 240 pixels\nDisplay aspect ratio                     : 4:3\nFrame rate                               : 25.000 fps\nColor space                              : YUV\nChroma subsampling                       : 4:2:0\nBit depth                                : 8 bits\nScan type                                : Progressive\nBits/(Pixel*Frame)                       : 0.147\nStream size                              : 135 MiB (81%)\nWriting library                          : x264 core 68 r1195bm \n\nAudio\nID                                       : 1\nFormat                                   : MPEG Audio\nFormat version                           : Version 2\nFormat profile                           : Layer 3\nCodec ID                                 : 55\nCodec ID/Hint                            : MP3\nDuration                                 : 1h 7mn\nBit rate mode                            : Constant\nBit rate                                 : 56.0 Kbps\nChannel(s)                               : 1 channel\nSampling rate                            : 22.05 KHz\nCompression mode                         : Lossy\nStream size                              : 26.9 MiB (16%)\nAlignment                                : Split accross interleaves\nInterleave, duration                     : 40 ms (1.00 video frame)\nInterleave, preload duration             : 500 ms\nWriting library                          : LAME3.98.2","torrent":{"xt":"urn:btih:d3d5d33ebd71574b30d4f992178985b9b22be54f","amp;dn":"Asian+Mature+And+Teen+Get+Abused+By+Strangers+On+The+Bus","amp;tr":["udp%3A%2F%2Ftracker.openbittorrent.com%3A80","udp%3A%2F%2Fopen.demonii.com%3A1337","udp%3A%2F%2Ftracker.coppersurfer.tk%3A6969","udp%3A%2F%2Fexodus.desync.com%3A6969"],"infoHash":"d3d5d33ebd71574b30d4f992178985b9b22be54f","infoHashBuffer":{"type":"Buffer","data":[211,213,211,62,189,113,87,75,48,212,249,146,23,137,133,185,178,43,229,79]},"announce":[],"urlList":[]}}